<?xml version="1.0" encoding="UTF-8" standalone="no"?>
<!-- Created with Inkscape (http://www.inkscape.org/) -->

<svg
   xmlns:dc="http://purl.org/dc/elements/1.1/"
   xmlns:cc="http://creativecommons.org/ns#"
   xmlns:rdf="http://www.w3.org/1999/02/22-rdf-syntax-ns#"
   xmlns:svg="http://www.w3.org/2000/svg"
   xmlns="http://www.w3.org/2000/svg"
   xmlns:sodipodi="http://sodipodi.sourceforge.net/DTD/sodipodi-0.dtd"
   xmlns:inkscape="http://www.inkscape.org/namespaces/inkscape"
   width="210mm"
   height="297mm"
   viewBox="0 0 744.09448819 1052.3622047"
   id="svg2"
   version="1.1"
   inkscape:version="0.91 r13725"
   sodipodi:docname="01-color-systems.svg">
  <defs
     id="defs4" />
  <sodipodi:namedview
     id="base"
     pagecolor="#ffffff"
     bordercolor="#666666"
     borderopacity="1.0"
     inkscape:pageopacity="0.0"
     inkscape:pageshadow="2"
     inkscape:zoom="0.35"
     inkscape:cx="1376.5953"
     inkscape:cy="977.88979"
     inkscape:document-units="px"
     inkscape:current-layer="layer1"
     showgrid="false"
     inkscape:window-width="1920"
     inkscape:window-height="1056"
     inkscape:window-x="0"
     inkscape:window-y="37"
     inkscape:window-maximized="1" />
  <metadata
     id="metadata7">
    <rdf:RDF>
      <cc:Work
         rdf:about="">
        <dc:format>image/svg+xml</dc:format>
        <dc:type
           rdf:resource="http://purl.org/dc/dcmitype/StillImage" />
        <dc:title></dc:title>
      </cc:Work>
    </rdf:RDF>
  </metadata>
  <g
     inkscape:label="Layer 1"
     inkscape:groupmode="layer"
     id="layer1">
    <circle
       style="fill:none;fill-opacity:1;stroke:#000000;stroke-width:1.77165353;stroke-miterlimit:4;stroke-dasharray:none;stroke-opacity:1"
       id="path4161-1"
       cx="381.83762"
       cy="529.35577"
       r="121.21831"
       inkscape:export-xdpi="90"
       inkscape:export-ydpi="90" />
    <circle
       style="fill:none;fill-opacity:1;stroke:#000000;stroke-width:1.77165353;stroke-miterlimit:4;stroke-dasharray:none;stroke-opacity:1"
       id="path4163-5"
       cx="452.54831"
       cy="649.5639"
       r="119.70308"
       inkscape:export-xdpi="90"
       inkscape:export-ydpi="90" />
    <circle
       style="fill:none;fill-opacity:1;stroke:#000000;stroke-width:1.77165353;stroke-miterlimit:4;stroke-dasharray:none;stroke-opacity:1"
       id="path4165-9"
       cx="312.13712"
       cy="650.57404"
       r="120.71323"
       inkscape:export-xdpi="90"
       inkscape:export-ydpi="90" />
    <path
       style="fill:#ff0000;fill-opacity:1;stroke:#000000;stroke-width:0.89482015;stroke-miterlimit:4;stroke-dasharray:none;stroke-opacity:1"
       d="m 378.30106,548.28556 c -9.60196,-6.5418 -26.53353,-13.65575 -39.42783,-16.56596 -16.57089,-3.74001 -36.81949,-3.75894 -53.2538,-0.0498 -5.98329,1.3504 -15.56353,4.34972 -19.63442,6.14702 -1.49297,0.65917 -3.02714,1.19847 -3.40926,1.19847 -0.99554,0 -0.93969,-15.98149 0.0848,-24.25875 2.58635,-20.89656 10.43119,-40.29363 23.28897,-57.58406 4.34668,-5.84518 15.6309,-17.47809 21.16823,-21.82235 14.12588,-11.08232 32.32927,-19.70008 49.22193,-23.30239 9.44654,-2.01445 14.82353,-2.55281 25.49694,-2.55281 5.55583,0 12.26072,0.29614 14.89975,0.6581 21.10582,2.89475 40.73287,10.8938 57.53823,23.44985 6.53177,4.88018 19.10152,17.55202 23.78614,23.97933 7.99285,10.96621 13.65341,21.81873 17.71214,33.95805 4.17823,12.49673 6.01935,24.36848 6.01935,38.8134 0,8.15396 -0.0621,8.74416 -0.88388,8.40593 -9.79352,-4.03065 -20.27871,-7.04555 -30.17831,-8.67744 -4.31823,-0.71184 -8.36858,-0.91585 -18.18275,-0.91585 -14.1611,0 -18.80884,0.54586 -30.49898,3.58202 -13.97612,3.62986 -24.00701,8.19021 -38.44393,17.47778 -1.22787,0.78992 -1.37412,0.7364 -5.3033,-1.94054 z"
       id="path4169-8"
       inkscape:connector-curvature="0"
       inkscape:export-xdpi="90"
       inkscape:export-ydpi="90" />
    <path
       style="fill:#00ff00;fill-opacity:1;stroke:#000000;stroke-width:0.89482015;stroke-miterlimit:4;stroke-dasharray:none;stroke-opacity:1"
       d="m 303.0447,769.83413 c -28.93374,-2.44476 -55.11231,-14.52237 -75.36775,-34.77128 -17.67765,-17.67195 -29.0832,-39.78683 -33.51298,-64.98027 -1.37377,-7.81304 -1.85553,-22.94189 -0.99811,-31.34437 4.04624,-39.65212 27.30606,-74.52423 62.30029,-93.40323 2.44437,-1.31871 4.50721,-2.31416 4.58409,-2.2121 0.0769,0.10206 0.654,3.22932 1.28251,6.94947 4.11564,24.36064 15.23763,46.23034 32.61616,64.1347 9.98973,10.292 20.55148,18.16082 32.4281,24.15993 l 5.71499,2.88675 -0.31446,4.56544 c -0.37489,5.44276 0.45396,16.78123 1.78064,24.35874 3.37849,19.29673 10.93088,36.63505 22.92975,52.64069 4.32802,5.77326 15.1615,16.84207 20.80298,21.25486 2.22233,1.73831 4.1066,3.3299 4.18726,3.53686 0.16387,0.42046 -7.46858,5.42076 -12.52352,8.20461 -7.44271,4.09885 -18.67566,8.42982 -27.98975,10.79171 -11.00608,2.79095 -26.98793,4.15121 -37.9202,3.22749 z"
       id="path4171-4"
       inkscape:connector-curvature="0"
       inkscape:export-xdpi="90"
       inkscape:export-ydpi="90" />
    <path
       style="fill:#0000ff;fill-opacity:1;stroke:#000000;stroke-width:0.89482015;stroke-miterlimit:4;stroke-dasharray:none;stroke-opacity:1"
       d="m 443.4559,767.81502 c -14.72906,-1.24803 -28.42584,-4.92214 -41.62391,-11.16549 -5.88222,-2.78258 -15.79736,-8.54205 -15.58661,-9.05388 0.0753,-0.18288 2.22506,-2.07851 4.77725,-4.21252 17.4748,-14.61147 31.533,-36.246 37.96568,-58.42638 3.50553,-12.08736 4.80833,-21.50671 4.82175,-34.86177 l 0.01,-9.88607 4.78503,-2.48829 c 11.18037,-5.81398 21.52978,-13.63395 31.11925,-23.51357 17.46933,-17.99791 28.65076,-40.0704 32.65429,-64.4606 0.62682,-3.8187 1.1947,-7.0266 1.26194,-7.12866 0.16358,-0.2483 7.04246,3.536 11.95612,6.57743 24.79786,15.34929 44.09791,41.58603 51.58638,70.12719 3.3227,12.664 4.66249,29.55 3.3335,42.01406 -2.90026,27.20069 -14.66714,52.21979 -33.52445,71.28074 -10.00529,10.11334 -19.75979,17.13324 -32.38604,23.30685 -15.92828,7.78814 -30.8522,11.48319 -48.77575,12.07649 -4.02798,0.13334 -9.59645,0.0499 -12.37437,-0.18553 z"
       id="path4173-8"
       inkscape:connector-curvature="0"
       inkscape:export-xdpi="90"
       inkscape:export-ydpi="90" />
    <path
       style="fill:#ffff00;fill-opacity:1;stroke:#000000;stroke-width:0.89482015;stroke-miterlimit:4;stroke-dasharray:none;stroke-opacity:1"
       d="m 326.78328,636.06783 c -30.49464,-16.28882 -51.7331,-42.48579 -60.66566,-74.82919 -1.44403,-5.2286 -3.73109,-16.87032 -3.73146,-18.99414 -1.4e-4,-0.78453 10.98046,-4.96442 18.34108,-6.98174 23.17675,-6.35205 47.5932,-5.54144 70.55224,2.34227 6.83554,2.3472 19.22767,8.33339 25.13613,12.14235 l 4.17545,2.69176 -4.42799,3.58968 c -5.10465,4.13823 -14.29219,13.43324 -18.41142,18.62676 -13.09901,16.51528 -22.74609,39.2882 -24.91272,58.80897 -0.42119,3.79492 -0.70578,5.05249 -1.14078,5.04107 -0.20305,-0.005 -2.41474,-1.10234 -4.91487,-2.43779 z"
       id="path4175-1"
       inkscape:connector-curvature="0"
       inkscape:export-xdpi="90"
       inkscape:export-ydpi="90" />
    <path
       style="fill:#ff00ff;fill-opacity:1;stroke:#000000;stroke-width:0.89482015;stroke-miterlimit:4;stroke-dasharray:none;stroke-opacity:1"
       d="m 432.92313,634.92362 c -0.52492,-5.02216 -2.75575,-15.13123 -4.68038,-21.20924 -7.03325,-22.21118 -21.00692,-42.79082 -38.97781,-57.40435 -2.58142,-2.09916 -4.51334,-3.99031 -4.29315,-4.20256 1.15119,-1.10971 13.08179,-7.97188 17.11247,-9.84265 26.11317,-12.11995 55.27872,-14.50377 82.78314,-6.76621 6.14206,1.72788 15.73009,5.3348 16.1993,6.09401 0.49291,0.79754 -1.22815,10.83056 -3.08356,17.9758 -8.40413,32.36459 -30.23997,60.02664 -59.88421,75.86242 l -4.85189,2.59185 -0.32391,-3.09907 z"
       id="path4177-0"
       inkscape:connector-curvature="0"
       inkscape:export-xdpi="90"
       inkscape:export-ydpi="90" />
    <path
       style="fill:#00ffff;fill-opacity:1;stroke:#000000;stroke-width:0.89482015;stroke-miterlimit:4;stroke-dasharray:none;stroke-opacity:1"
       d="m 380.62401,743.78095 c -22.16456,-16.6614 -38.565,-42.80631 -44.17087,-70.41537 -1.73819,-8.56068 -2.34625,-14.70573 -2.34625,-23.71131 l 0,-7.58868 2.65165,1.05812 c 7.71249,3.0776 18.3842,5.91404 27.65292,7.34988 8.10371,1.25537 26.7043,1.2591 34.85027,0.007 10.33704,-1.58889 25.10927,-5.77727 31.00116,-8.78978 l 1.4542,-0.74353 -0.26123,11.53719 c -0.28415,12.54939 -1.12024,18.80136 -3.92177,29.32524 -5.09659,19.14528 -15.7699,37.78379 -29.87561,52.17099 -4.28308,4.36855 -13.035,12.11586 -13.68695,12.11586 -0.14689,0 -1.65328,-1.04202 -3.34752,-2.31561 z"
       id="path4179-3"
       inkscape:connector-curvature="0"
       inkscape:export-xdpi="90"
       inkscape:export-ydpi="90" />
    <path
       style="fill:#ffffff;fill-opacity:1;stroke:#000000;stroke-width:0.89482015;stroke-miterlimit:4;stroke-dasharray:none;stroke-opacity:1"
       d="m 372.37423,649.06762 c -9.85091,-0.75765 -20.05819,-2.90103 -29.46689,-6.18762 -9.07387,-3.16963 -8.29538,-2.71269 -8.29538,-4.86898 0,-2.74139 1.82076,-13.05263 3.30004,-18.68861 5.38228,-20.50628 17.25857,-40.66205 32.51216,-55.17782 5.02795,-4.78475 11.32122,-9.97702 12.0926,-9.97702 0.63529,0 7.83381,5.82776 12.05634,9.76054 11.81845,11.00745 23.76673,29.09853 29.61851,44.84583 2.41215,6.49118 5.12705,17.0753 6.18383,24.10781 0.73558,4.89509 0.75778,5.79691 0.15227,6.18503 -1.85545,1.1893 -11.90833,4.7214 -17.83583,6.26666 -8.43382,2.19864 -14.00109,3.13202 -22.52153,3.77586 -7.56809,0.57188 -9.88935,0.56644 -17.79612,-0.0417 l 0,-10e-6 z"
       id="path4181-0"
       inkscape:connector-curvature="0"
       inkscape:export-xdpi="90"
       inkscape:export-ydpi="90" />
  </g>
</svg>
