<?xml version="1.0" encoding="UTF-8" standalone="no"?>
<!-- Created with Inkscape (http://www.inkscape.org/) -->

<svg
   xmlns:dc="http://purl.org/dc/elements/1.1/"
   xmlns:cc="http://creativecommons.org/ns#"
   xmlns:rdf="http://www.w3.org/1999/02/22-rdf-syntax-ns#"
   xmlns:svg="http://www.w3.org/2000/svg"
   xmlns="http://www.w3.org/2000/svg"
   xmlns:sodipodi="http://sodipodi.sourceforge.net/DTD/sodipodi-0.dtd"
   xmlns:inkscape="http://www.inkscape.org/namespaces/inkscape"
   width="210mm"
   height="297mm"
   viewBox="0 0 744.09448819 1052.3622047"
   id="svg2"
   version="1.1"
   inkscape:version="0.92.3 (2405546, 2018-03-11)"
   sodipodi:docname="01-primaries2.svg">
  <defs
     id="defs4" />
  <sodipodi:namedview
     id="base"
     pagecolor="#ffffff"
     bordercolor="#666666"
     borderopacity="1.0"
     inkscape:pageopacity="0.0"
     inkscape:pageshadow="2"
     inkscape:zoom="1.979899"
     inkscape:cx="374.45801"
     inkscape:cy="856.67148"
     inkscape:document-units="px"
     inkscape:current-layer="layer1"
     showgrid="false"
     inkscape:window-width="1920"
     inkscape:window-height="1022"
     inkscape:window-x="0"
     inkscape:window-y="30"
     inkscape:window-maximized="1" />
  <metadata
     id="metadata7">
    <rdf:RDF>
      <cc:Work
         rdf:about="">
        <dc:format>image/svg+xml</dc:format>
        <dc:type
           rdf:resource="http://purl.org/dc/dcmitype/StillImage" />
        <dc:title />
      </cc:Work>
    </rdf:RDF>
  </metadata>
  <g
     inkscape:label="Layer 1"
     inkscape:groupmode="layer"
     id="layer1">
    <circle
       style="fill:none;fill-opacity:1;stroke:#000000;stroke-width:1.77165353;stroke-miterlimit:4;stroke-dasharray:none;stroke-opacity:1"
       id="path4161-1-4"
       cx="106.59244"
       cy="-400.4646"
       r="121.21831"
       transform="matrix(-0.5,0.8660254,-0.8660254,-0.5,0,0)"
       inkscape:export-xdpi="90"
       inkscape:export-ydpi="90" />
    <circle
       style="fill:none;fill-opacity:1;stroke:#000000;stroke-width:1.77165353;stroke-miterlimit:4;stroke-dasharray:none;stroke-opacity:1"
       id="path4163-5-4"
       cx="177.30313"
       cy="-280.2565"
       r="119.70308"
       transform="matrix(-0.5,0.8660254,-0.8660254,-0.5,0,0)"
       inkscape:export-xdpi="90"
       inkscape:export-ydpi="90" />
    <circle
       style="fill:none;fill-opacity:1;stroke:#000000;stroke-width:1.77165353;stroke-miterlimit:4;stroke-dasharray:none;stroke-opacity:1"
       id="path4165-9-4"
       cx="36.891941"
       cy="-279.24637"
       r="120.71323"
       transform="matrix(-0.5,0.8660254,-0.8660254,-0.5,0,0)"
       inkscape:export-xdpi="90"
       inkscape:export-ydpi="90" />
    <path
       style="fill:#00ffff;fill-opacity:1;stroke:#000000;stroke-width:0.89482015;stroke-miterlimit:4;stroke-dasharray:none;stroke-opacity:1"
       d="m 278.89087,280.0164 c 10.46635,-5.0446 25.093,-16.1508 34.06046,-25.8625 11.52439,-12.4808 21.66508,-30.00714 26.67003,-46.09424 1.82217,-5.85689 4.0148,-15.65328 4.49374,-20.07742 0.17563,-1.62254 0.47566,-3.22082 0.66672,-3.55174 0.49777,-0.86216 14.31022,7.17695 20.9663,12.20281 16.80377,12.68813 29.67971,29.18049 38.22477,48.96089 2.88874,6.6869 7.32102,22.2758 8.31459,29.2434 2.53463,17.7745 0.89614,37.848 -4.4305,54.2786 -2.97871,9.1882 -5.20097,14.114 -10.53767,23.3574 -2.77792,4.8115 -6.38683,10.4701 -8.01981,12.5746 -13.05984,16.8308 -29.80074,29.8288 -49.07728,38.1046 -7.49225,3.2166 -24.75126,7.7664 -32.65978,8.6097 -13.49344,1.4389 -25.72228,0.9149 -38.2646,-1.6398 -12.91161,-2.6299 -24.1134,-6.9714 -36.62307,-14.1938 -7.06154,-4.077 -7.54161,-4.4259 -6.83781,-4.9684 8.38741,-6.4662 16.24098,-14.0392 22.60404,-21.7965 2.77559,-3.3838 4.97744,-6.7895 9.88452,-15.2888 7.08055,-12.2639 8.9317,-16.5619 12.14737,-28.2039 3.84451,-13.9186 4.91058,-24.8858 4.08577,-42.0323 -0.0702,-1.4583 0.0493,-1.5582 4.3322,-3.6226 z"
       id="path4169-8-4"
       inkscape:connector-curvature="0"
       inkscape:export-xdpi="90"
       inkscape:export-ydpi="90" />
    <path
       style="fill:#ff00ff;fill-opacity:1;stroke:#000000;stroke-width:0.89482015;stroke-miterlimit:4;stroke-dasharray:none;stroke-opacity:1"
       d="m 124.65236,104.06822 c 16.58413,-23.83496 40.13292,-40.46747 67.7967,-47.88474 24.14314,-6.47335 48.99798,-5.29339 73.03109,3.46705 7.45314,2.71678 20.79594,9.86397 27.64401,14.80777 32.31665,23.33022 50.88687,60.90987 49.73945,100.65526 -0.0802,2.77624 -0.24948,5.06044 -0.37631,5.07599 -0.12684,0.0156 -3.12367,-1.04828 -6.65967,-2.36405 -23.15475,-8.61607 -47.65547,-9.919 -71.85036,-3.82091 -13.908,3.50536 -26.00345,8.7177 -37.13713,16.0036 l -5.35754,3.50593 -3.79652,-2.55503 c -4.52616,-3.04606 -14.76002,-7.99751 -21.98566,-10.63732 -18.40068,-6.72249 -37.19228,-8.85108 -57.05306,-6.4626 -7.16375,0.86157 -22.16635,4.70924 -28.80869,7.3885 -2.61658,1.05545 -4.93708,1.89147 -5.15667,1.85783 -0.44602,-0.0683 -0.96018,-9.17833 -0.84364,-14.94799 0.17169,-8.49497 2.03741,-20.38849 4.64899,-29.63568 3.08605,-10.927 9.89892,-25.44784 16.16501,-34.45361 z"
       id="path4171-4-7"
       inkscape:connector-curvature="0"
       inkscape:export-xdpi="90"
       inkscape:export-ydpi="90" />
    <path
       style="fill:#ffff00;fill-opacity:1;stroke:#000000;stroke-width:0.89482015;stroke-miterlimit:4;stroke-dasharray:none;stroke-opacity:1"
       d="m 56.195351,226.67744 c 8.44541,-12.13169 18.47567,-22.1564 30.48156,-30.46462 5.35091,-3.70285 15.296349,-9.40986 15.634209,-8.97145 0.12075,0.15666 0.68751,2.96621 1.25951,6.24347 3.91653,22.43937 15.62346,45.43138 31.61591,62.09246 8.71514,9.0795 16.22118,14.9175 27.78032,21.6066 l 8.55653,4.9517 -0.23758,5.3881 c -0.55512,12.5895 1.0425,25.4624 4.80375,38.7069 6.85197,24.1278 20.37659,44.8475 39.49736,60.5097 2.99368,2.4522 5.48787,4.548 5.54263,4.6572 0.13325,0.2658 -6.58349,4.331 -11.67428,7.0656 -25.6918,13.8009 -58.06351,17.3969 -86.52514,9.6115 -12.6287,-3.4544 -27.922299,-10.7371 -38.051939,-18.1201 -22.10637,-16.112 -37.89011,-38.812 -44.96876,-64.6734 -3.75573,-13.7215 -4.95789,-25.6791 -3.99126,-39.7005 1.21944,-17.6884 5.48135,-32.4604 13.92932,-48.27934 1.89854,-3.55499 4.75492,-8.33577 6.34783,-10.62377 z"
       id="path4173-8-6"
       inkscape:connector-curvature="0"
       inkscape:export-xdpi="90"
       inkscape:export-ydpi="90" />
    <path
       style="fill:#0000ff;fill-opacity:1;stroke:#000000;stroke-width:0.89482015;stroke-miterlimit:4;stroke-dasharray:none;stroke-opacity:1"
       d="m 228.62808,191.50958 c 29.35383,-18.26473 62.66034,-23.55928 95.13682,-15.12341 5.25012,1.36374 16.47567,5.20394 18.31514,6.26553 0.67949,0.39215 -1.19092,11.99157 -3.12418,19.37471 -6.08734,23.24769 -18.99757,43.98769 -37.30459,59.92889 -5.4505,4.7462 -16.83076,12.485 -23.08364,15.6974 l -4.41886,2.2701 -0.89476,-5.6296 c -1.03149,-6.4898 -4.48743,-19.094 -6.92554,-25.2581 -7.75314,-19.60171 -22.6515,-39.34276 -38.47369,-50.97952 -3.07589,-2.26221 -4.0227,-3.13747 -3.79533,-3.50849 0.10152,-0.17585 2.16207,-1.54003 4.56863,-3.03751 z"
       id="path4175-1-3"
       inkscape:connector-curvature="0"
       inkscape:export-xdpi="90"
       inkscape:export-ydpi="90" />
    <path
       style="fill:#00ff00;fill-opacity:1;stroke:#000000;stroke-width:0.89482015;stroke-miterlimit:4;stroke-dasharray:none;stroke-opacity:1"
       d="m 176.54906,284.0015 c 4.61181,2.0565 14.48188,5.1791 20.70798,6.5513 22.75204,5.0146 47.56137,3.2029 69.2025,-5.0536 3.10864,-1.186 5.71238,-1.9135 5.7861,-1.6167 0.38544,1.5518 0.36295,15.3151 -0.0322,19.7412 -2.5604,28.6746 -15.07873,55.1246 -35.53186,75.0754 -4.56742,4.4552 -12.48512,10.9552 -13.37722,10.982 -0.93714,0.028 -8.76546,-6.4789 -14.02572,-11.6584 -23.82649,-23.4605 -36.86459,-56.2019 -35.75668,-89.7924 l 0.1813,-5.4978 2.84585,1.269 z"
       id="path4177-0-1"
       inkscape:connector-curvature="0"
       inkscape:export-xdpi="90"
       inkscape:export-ydpi="90" />
    <path
       style="fill:#ff0000;fill-opacity:1;stroke:#000000;stroke-width:0.89482015;stroke-miterlimit:4;stroke-dasharray:none;stroke-opacity:1"
       d="m 108.42543,184.28047 c 25.51148,-10.86437 56.35385,-11.99512 83.06696,-3.04539 8.2828,2.77498 13.90864,5.32094 21.70772,9.82374 l 6.57192,3.7943 -2.24217,1.76734 c -6.52152,5.14041 -14.31377,12.96419 -20.19166,20.27318 -5.13898,6.39037 -14.44256,22.49706 -17.43379,30.17626 -3.7925,9.7465 -7.55135,24.6339 -7.88839,31.2426 l -0.0831,1.6312 -9.86089,-5.9948 c -10.72603,-6.5208 -15.72237,-10.3709 -23.43557,-18.059 -14.03202,-13.9864 -24.83678,-32.54904 -30.24361,-51.95854 -1.64169,-5.89351 -3.97509,-17.34654 -3.64911,-17.91115 0.0734,-0.12721 1.72904,-0.91078 3.67913,-1.74124 z"
       id="path4179-3-7"
       inkscape:connector-curvature="0"
       inkscape:export-xdpi="90"
       inkscape:export-ydpi="90" />
    <path
       style="fill:#000000;fill-opacity:1;stroke:#000000;stroke-width:0.89482015;stroke-miterlimit:4;stroke-dasharray:none;stroke-opacity:1"
       d="m 194.57445,224.4926 c 5.58164,-8.15228 12.54143,-15.9204 20.09206,-22.42527 7.28198,-6.27335 6.49696,-5.82766 8.36437,-4.74951 2.37412,1.3707 10.3935,8.10312 14.53478,12.20222 15.06785,14.91434 26.58511,35.27736 31.52934,55.74526 1.62974,6.7467 2.97974,14.793 2.59405,15.461 -0.31764,0.5502 -8.96389,3.8704 -14.48104,5.5609 -15.44196,4.7313 -37.08343,6.0333 -53.64688,3.2274 -6.82762,-1.1566 -17.35117,-4.0975 -23.96989,-6.6985 -4.60707,-1.8105 -5.39915,-2.2422 -5.4325,-2.9607 -0.10224,-2.2015 1.86531,-12.6736 3.49079,-18.5796 2.31287,-8.4032 4.28816,-13.6913 7.99074,-21.39215 3.28886,-6.84006 4.45416,-8.84763 8.93444,-15.3909 l 0,0 z"
       id="path4181-0-5"
       inkscape:connector-curvature="0"
       inkscape:export-xdpi="90"
       inkscape:export-ydpi="90" />
  </g>
</svg>
